# xmcd
#
# Track frame offsets:
#	150
#	26790
#	53104
#	78846
#	105184
#	121748
#	146133
#	168139
#	183895
#	202065
#	224200
#	244486
#	261955
#	282997
#
# Disc length: 4006 seconds
#
# Revision: 0
# Processed by: cddbd v1.5.2PL0 Copyright (c) Steve Scherf et al.
# Submitted via: EasyCDDAExtractor 12.0.0.1
#
DISCID=cf0fa40e
DTITLE=Various Artist - The Best Cuban....Vol. 7
DYEAR=1900
DGENRE=
TTITLE0=Juan Formell y Los VAN VAN - Si no te quieres tu
TTITLE1=Manolito y su Trabuco - El Aguila
TTITLE2=Manolito y Su Trabuco - Marcando la Distancia
TTITLE3=Habana D'Primera - Despues De Un Beso
TTITLE4=Orishas (ft. Heather Headley) - Represent Cuba
TTITLE5=Maikel Blanco - Sin ti
TTITLE6=David Calzado y Su Charanga Ha - Gozando En La Habana
TTITLE7=La Monolin y El Medico de la S - Hiciste Buena
TTITLE8=Soneros All Stars - El Maraquero
TTITLE9=Juan Formell y Los VAN VAN - Mi Songo
TTITLE10=Pupy y los que Son Son - El Barniz
TTITLE11=Soneros All Stars - Babalocha y Yalocha
TTITLE12=Manolito Simonet y Su Trabuco - La Habana Me Llama
TTITLE13=Isaac Delgado - La Sandungita
EXTD=
EXTT0=
EXTT1=
EXTT2=
EXTT3=
EXTT4=
EXTT5=
EXTT6=
EXTT7=
EXTT8=
EXTT9=
EXTT10=
EXTT11=
EXTT12=
EXTT13=
PLAYORDER=
